<?xml version="1.0" encoding="utf-8"?>
<!-- Generator: Adobe Illustrator 27.5.0, SVG Export Plug-In . SVG Version: 6.00 Build 0)  -->
<svg version="1.1" xmlns="http://www.w3.org/2000/svg" xmlns:xlink="http://www.w3.org/1999/xlink" x="0px" y="0px"
	 viewBox="0 0 1000 1000" style="enable-background:new 0 0 1000 1000;" xml:space="preserve">
<style type="text/css">
	.st0{fill:#FFFFFF;}
	.st1{fill:#FFFFFF;stroke:#000000;stroke-width:11;stroke-miterlimit:10;}
	.st2{fill:none;stroke:#000000;stroke-width:11;stroke-miterlimit:10;}
	.st3{stroke:#000000;stroke-width:11;stroke-miterlimit:10;}
	.st4{font-family:'MyriadPro-Regular';}
	.st5{font-size:15px;}
	.st6{fill:#DFD52F;}
	.st7{font-family:'Nirvana';}
	.st8{font-size:128px;}
</style>
<g id="Layer_3">
	<g>
		<g>
			<path class="st0" d="M451.66,87.49c-9.56,7.12-19.15,14.24-28.05,22.18c-8.44,7.53-15.86,16.04-23.84,24.03
				c-4.36,4.36-8.91,8.55-13.92,12.16c1.14,1.14,2.28,2.28,3.42,3.42c8.94-14.57,18.2-28.94,27.78-43.09
				c-1.14,0.3-2.28,0.6-3.42,0.9c-0.84-0.56-0.3-1.12-0.57-0.61c-0.15,0.28-0.24,0.56-0.42,0.85c-0.66,1.06-1.45,2.07-2.17,3.09
				c-1.43,2.03-2.86,4.05-4.28,6.08c-2.95,4.19-5.9,8.38-8.85,12.56c-5.9,8.38-11.81,16.75-17.71,25.13c1.52,0.2,3.05,0.4,4.57,0.6
				c-0.28-0.83,0.28-1.56,0.72-2.26c0.58-0.92,1.21-1.8,1.82-2.69c1.34-1.95,2.72-3.87,4.13-5.77c2.79-3.76,5.71-7.41,8.75-10.96
				c0.88-1.03,1.01-2.53,0-3.54c-0.92-0.92-2.63-1.01-3.54,0c-8.71,9.71-22.47,12.13-32.93,19.36c-2.64,1.82-0.37,5.78,2.52,4.32
				c13.67-6.88,27.33-13.76,41-20.64c-1.01-1.31-2.02-2.62-3.03-3.93c-6.41,5.55-13.41,10.35-20.12,15.51
				c-3.43,2.63-6.8,5.34-9.97,8.28c-1.5,1.39-2.95,2.83-4.33,4.33c-0.74,0.8-1.46,1.62-2.16,2.46c-0.5,0.6-1.19,1.88-1.85,2.19
				c0.42-0.11,0.84-0.23,1.26-0.34c-0.11,0-0.22-0.01-0.33-0.01c0.42,0.11,0.84,0.23,1.26,0.34c-0.05-0.03-0.09-0.07-0.14-0.1
				c0.38,0.5,0.77,1,1.15,1.49c0.01,0.27,0.02,0.55,0.03,0.82c-0.21,0.37-0.43,0.74-0.64,1.1c0.03-0.04,0.07-0.08,0.1-0.12
				c-0.37,0.21-0.74,0.43-1.1,0.64c0.04-0.01,0.08-0.02,0.12-0.03c-0.64-0.08-1.28-0.17-1.93-0.25c0.04,0.03,0.08,0.06,0.12,0.09
				c1.09,0.79,2.79,0.19,3.42-0.9c0.74-1.26,0.2-2.63-0.9-3.42c-2.18-1.58-4.71,1.08-4.08,3.31c0.35,1.23,1.49,2.02,2.74,2.03
				c1.29,0.01,2.24-0.75,3-1.71c2.51-3.16,5.27-6.08,8.24-8.81c5.88-5.39,12.4-9.99,18.78-14.76c3.7-2.77,7.36-5.59,10.86-8.61
				c2.25-1.95-0.61-5.14-3.03-3.93c-13.67,6.88-27.33,13.76-41,20.64c0.84,1.44,1.68,2.88,2.52,4.32
				c10.85-7.5,24.88-10.03,33.94-20.14c-1.18-1.18-2.36-2.36-3.54-3.54c-3.52,4.12-6.89,8.37-10.1,12.74
				c-1.54,2.1-3.04,4.22-4.5,6.38c-1.49,2.2-3.04,4.68-2.11,7.44c0.72,2.13,3.32,2.37,4.57,0.6c10.09-14.32,20.18-28.64,30.28-42.96
				c2.08-2.95,6.41-7.98,1.93-10.98c-1.18-0.79-2.7-0.17-3.42,0.9c-9.58,14.15-18.85,28.52-27.78,43.09
				c-1.25,2.03,1.34,4.92,3.42,3.42c9.12-6.56,16.78-14.75,24.47-22.87c8-8.44,16.42-16.28,25.54-23.5c5.19-4.11,10.5-8.05,15.8-12
				c1.08-0.8,1.63-2.16,0.9-3.42C454.45,87.32,452.75,86.67,451.66,87.49L451.66,87.49z"/>
		</g>
	</g>
	<g>
		<g>
			<path class="st0" d="M426.33,112.85c0.5,17.29,0.84,34.59,1.02,51.89c0.18,17.24,0.36,34.51,0.01,51.76
				c-0.19,9.59-0.7,19.18-1.96,28.7c0.33-2.44,0.65-4.87,0.98-7.31c-2.13,15.76-6.36,31.18-12.52,45.85
				c0.92-2.19,1.85-4.38,2.77-6.57c-2.52,5.95-5.34,11.77-8.47,17.42c-3.07,5.54-6.35,11.12-10.18,16.17
				c1.43-1.86,2.87-3.71,4.3-5.57c-0.57,0.72-1.17,1.38-1.87,1.98c1.86-1.43,3.71-2.87,5.57-4.3c-0.49,0.37-0.97,0.68-1.52,0.95
				c2.19-0.92,4.38-1.85,6.57-2.77c-0.77,0.31-1.53,0.5-2.34,0.62c2.44-0.33,4.87-0.65,7.31-0.98c-4.16,0.44-8.43,0.27-12.61,0.37
				c-4.18,0.09-8.36,0.19-12.55,0.28c-8.56,0.19-17.13,0.37-25.69,0.54c-16.93,0.33-33.86,0.62-50.79,0.81
				c-34.05,0.38-68.11,0.35-102.16-0.48c-19.11-0.47-38.21-1.2-57.3-2.25c-3.79-0.14-7.32,0.65-10.6,2.37
				c-3.41,1.11-6.36,3-8.85,5.69c-2.68,2.49-4.58,5.44-5.69,8.85c-1.72,3.28-2.51,6.81-2.37,10.6c0.33,2.44,0.65,4.87,0.98,7.31
				c1.31,4.66,3.66,8.7,7.07,12.13c1.86,1.43,3.71,2.87,5.57,4.3c4.29,2.49,8.92,3.74,13.88,3.75c33,1.82,66.06,2.66,99.11,2.9
				c32.87,0.23,65.73-0.14,98.59-0.74c16.43-0.3,32.86-0.66,49.29-1.02c4.05-0.09,8.09-0.15,12.14-0.27
				c9.98-0.31,20.2-3.47,26.86-11.38c5.92-7.02,10.87-14.97,15.27-23.02c4.54-8.3,8.3-16.97,11.84-25.74
				c2.71-6.72,5.01-13.6,6.89-20.6c4.5-16.75,6.6-34.2,7.26-51.51c0.63-16.41,0.39-32.87,0.28-49.29
				c-0.12-16.51-0.38-33.01-0.79-49.51c-0.1-3.98-0.21-7.95-0.32-11.93c-0.21-7.18-2.93-14.32-8.05-19.45
				c-2.49-2.68-5.44-4.58-8.85-5.69c-3.28-1.72-6.81-2.51-10.6-2.37c-2.44,0.33-4.87,0.65-7.31,0.98c-4.66,1.31-8.7,3.66-12.13,7.07
				C429.53,98.7,426.12,105.48,426.33,112.85L426.33,112.85z"/>
		</g>
	</g>
	<g>
		<g>
			<path class="st0" d="M114.58,329.95c-0.07,0.01-0.14,0.01-0.21,0.02c2.44,0.33,4.87,0.65,7.31,0.98
				c-0.05-0.01-0.11-0.02-0.16-0.03c2.19,0.92,4.38,1.85,6.57,2.77c-0.04-0.03-0.08-0.06-0.12-0.08c3.29,3.29,6.58,6.58,9.87,9.87
				c-0.03-0.04-0.05-0.08-0.08-0.12c0.92,2.19,1.85,4.38,2.77,6.57c-0.01-0.05-0.03-0.11-0.04-0.16c0.33,2.44,0.65,4.87,0.98,7.31
				c-0.02-0.13-0.01-0.26,0.02-0.4c-0.33,2.44-0.65,4.87-0.98,7.31c0.03-0.16,0.08-0.31,0.14-0.45c-0.92,2.19-1.85,4.38-2.77,6.57
				c0.12-0.24,0.24-0.45,0.39-0.67c-1.43,1.86-2.87,3.71-4.3,5.57c0.11-0.13,0.23-0.25,0.36-0.36c-1.86,1.43-3.71,2.87-5.57,4.3
				c1.94-1.26,4.15-2.23,6.2-3.29c2.14-1.11,4.29-2.2,6.45-3.3c4.3-2.19,8.6-4.38,12.83-6.69c4.22-2.3,8.39-4.72,12.41-7.35
				c4.02-2.63,7.8-5.57,11.62-8.48c3.92-2.99,7.97-5.69,12.35-7.97c4.34-2.27,8.83-4.26,13.15-6.58
				c7.91-4.25,15.17-9.57,22.45-14.79c8.22-5.89,16.59-11.71,25.93-15.7c3.2-1.73,5.78-4.09,7.72-7.08
				c2.43-2.66,4.07-5.77,4.92-9.35c1.15-3.66,1.31-7.31,0.49-10.97c-0.17-3.66-1.25-7.07-3.26-10.22c-1.43-1.86-2.87-3.71-4.3-5.57
				c-3.43-3.41-7.48-5.77-12.13-7.07c-2.44-0.33-4.87-0.65-7.31-0.98c-4.96,0.02-9.59,1.27-13.88,3.75
				c-17.9,7.65-31.88,21.79-48.99,30.82c-4.61,2.43-9.38,4.53-13.96,7.01c-4.68,2.54-8.92,5.66-13.12,8.91
				c-8.23,6.35-17.02,11.66-26.22,16.49c-5.07,2.66-10.2,5.22-15.29,7.85c-1.34,0.69-2.67,1.39-4,2.1
				c-5.03,2.67-9.14,6.41-12.1,11.31c-1.38,2.28-2.57,4.78-3.17,7.36c-0.37,1.57-0.95,5.89-1.04,7.53c-0.14,2.65-0.12,3.7,0.97,7.71
				c0.63,2.33,1.99,5.44,2.82,6.73c0.67,1.02,1.41,1.99,2.23,2.91c1.94,2.99,4.51,5.35,7.72,7.08c3.76,2.22,9.93,4.29,14.38,3.85
				c3.79,0.14,7.32-0.65,10.6-2.37c3.41-1.11,6.36-3,8.85-5.69c2.68-2.49,4.58-5.44,5.69-8.85c1.72-3.28,2.51-6.81,2.37-10.6
				c-0.33-2.44-0.65-4.87-0.98-7.31c-1.31-4.66-3.66-8.7-7.07-12.13c-1.86-1.43-3.71-2.87-5.57-4.3
				C124.17,331.21,119.55,329.96,114.58,329.95L114.58,329.95z"/>
		</g>
	</g>
	<g>
		<g>
			<path class="st0" d="M431.81,98.21c-0.62,0.49-1.24,0.98-1.86,1.46c1.86-1.43,3.71-2.87,5.57-4.3
				c-8.43,6.5-17.32,12.39-25.4,19.35c-6.54,5.63-12.78,11.51-19.61,16.8c1.86-1.43,3.71-2.87,5.57-4.3
				c-13.22,10.2-27.04,19.68-40.68,29.31c-13.56,9.57-27.3,18.94-41.69,27.23c-7.34,4.23-14.89,8.08-22.03,12.64
				c-7.16,4.58-13.92,9.77-20.75,14.82c-13.94,10.31-27.88,20.61-41.81,30.92c-4.98,3.68-10.04,7.31-14.7,11.4
				c-4.27,3.75-7.64,8.29-11,12.86c-3.51,4.76-6.27,10.01-9.55,14.93c-0.81,1.21-1.65,2.39-2.53,3.54c1.43-1.86,2.87-3.71,4.3-5.57
				c-1.66,2.12-3.49,4.09-5.61,5.76c1.86-1.43,3.71-2.87,5.57-4.3c-1.53,1.17-3.17,2.15-4.94,2.91c2.19-0.92,4.38-1.85,6.57-2.77
				c-0.51,0.21-1.02,0.4-1.55,0.57c2.44-0.33,4.87-0.65,7.31-0.98c-0.12-0.01-0.23-0.03-0.35-0.04c2.44,0.33,4.87,0.65,7.31,0.98
				c-0.47-0.09-0.9-0.21-1.34-0.39c2.19,0.92,4.38,1.85,6.57,2.77c-0.43-0.2-0.82-0.44-1.2-0.72c1.86,1.43,3.71,2.87,5.57,4.3
				c-0.37-0.3-0.7-0.62-1.01-0.98c1.43,1.86,2.87,3.71,4.3,5.57c-0.36-0.47-0.65-0.96-0.9-1.5c0.92,2.19,1.85,4.38,2.77,6.57
				c-0.17-0.45-0.28-0.88-0.36-1.35c0.33,2.44,0.65,4.87,0.98,7.31c-0.04-0.48-0.04-0.93,0.02-1.4c-0.33,2.44-0.65,4.87-0.98,7.31
				c0.09-0.47,0.22-0.9,0.4-1.34c-0.92,2.19-1.85,4.38-2.77,6.57c0.21-0.43,0.44-0.82,0.72-1.2c-1.43,1.86-2.87,3.71-4.3,5.57
				c0.3-0.37,0.62-0.7,0.98-1.01c-1.86,1.43-3.71,2.87-5.57,4.3c0.47-0.36,0.96-0.65,1.5-0.9c-2.19,0.92-4.38,1.85-6.57,2.77
				c0.45-0.16,0.88-0.28,1.35-0.35c-2.44,0.33-4.87,0.65-7.31,0.98c0.12-0.01,0.23-0.02,0.35-0.03c3.79,0.14,7.32-0.65,10.6-2.37
				c3.41-1.11,6.36-3,8.85-5.69c2.68-2.49,4.58-5.44,5.69-8.85c1.72-3.28,2.51-6.81,2.37-10.6c-0.33-2.44-0.65-4.87-0.98-7.31
				c-1.31-4.66-3.66-8.7-7.07-12.13c-1.86-1.43-3.71-2.87-5.57-4.3c-4.29-2.49-8.92-3.74-13.88-3.75c-2.36,0.19-5.33,0.58-7.66,1.01
				c-0.29,0.05-0.57,0.1-0.86,0.18c-1.26,0.37-2.83,1.16-3.78,1.56c-0.99,0.42-2.58,1-3.76,1.61c-5.07,2.63-8.73,6.93-11.87,11.55
				c-0.27,0.39-0.5,0.78-0.72,1.2c-0.96,1.93-2.21,4.86-2.9,6.89c-0.08,0.22-0.14,0.44-0.2,0.67c-0.54,2.03-0.84,5.55-1.05,7.65
				c-0.02,0.24-0.06,0.46-0.06,0.7c-0.02,1.37,0.41,3.45,0.53,4.36c0.15,1.08,0.26,2.98,0.63,4.34c1.38,5.14,3.1,7.71,6.04,11.52
				c1.07,1.38,1.88,2.68,3.16,3.76c1.63,1.38,4.06,3.37,5.85,4.51c0.3,0.19,0.6,0.35,0.92,0.51c1.83,0.92,4.96,2.28,6.89,2.9
				c0.22,0.07,0.44,0.14,0.67,0.2c2.16,0.54,13.48,0.88,7.66,1.05c0.12,0.01,0.23,0.03,0.35,0.04c2.44-0.33,4.87-0.65,7.31-0.98
				c3.1-0.96,6.08-2.35,9.01-3.74c3.71-1.76,7.01-4.67,10.12-7.21c1.41-1.15,2.69-2.46,3.87-3.84c4.01-4.7,7.6-9.71,10.83-14.96
				c2.4-3.91,4.72-7.89,7.51-11.54c-1.43,1.86-2.87,3.71-4.3,5.57c2.79-3.59,6.13-6.6,9.71-9.39c-1.86,1.43-3.71,2.87-5.57,4.3
				c12.7-9.79,25.78-19.11,38.67-28.64c12.85-9.5,25.44-19.31,39.41-27.12c6.92-3.87,13.85-7.68,20.61-11.84
				c6.56-4.03,13-8.25,19.37-12.58c12.98-8.83,25.7-18.04,38.47-27.15c8.81-6.28,17.53-12.68,25.93-19.51
				c6.86-5.58,13.1-11.89,20.1-17.3c-1.86,1.43-3.71,2.87-5.57,4.3c7.36-5.66,14.99-10.93,22.26-16.74
				c2.68-2.49,4.58-5.44,5.69-8.85c1.72-3.28,2.51-6.81,2.37-10.6c0.14-3.79-0.65-7.32-2.37-10.6c-1.11-3.41-3-6.36-5.69-8.85
				c-1.86-1.43-3.71-2.87-5.57-4.3c-4.29-2.49-8.92-3.74-13.88-3.75c-2.44,0.33-4.87,0.65-7.31,0.98
				C439.28,92.45,435.24,94.81,431.81,98.21L431.81,98.21z"/>
		</g>
	</g>
	<g>
		<g>
			<path class="st0" d="M286.93,290.57c23.57,3.7,47.3,5.99,71.09,7.65c21.53,1.5,43.09,2.65,64.59,4.59
				c12.21,1.1,24.38,2.52,36.52,4.15c-2.44-0.33-4.87-0.65-7.31-0.98c29.51,3.98,58.88,8.93,88.29,13.6
				c8.39,1.33,16.78,2.66,25.17,4c-4.04-15.32-8.09-30.64-12.13-45.96c-2.28,2.29-4.71,4.42-7.27,6.4c1.86-1.43,3.71-2.87,5.57-4.3
				c-6.02,4.59-12.66,8.27-19.63,11.21c2.19-0.92,4.38-1.85,6.57-2.77c-12.83,5.35-26.51,8.09-40.24,9.96
				c2.44-0.33,4.87-0.65,7.31-0.98c-11.37,1.53-22.81,2.61-34.21,3.83c-11.66,1.24-23.32,2.49-34.97,3.73
				c-3.79-0.14-7.32,0.65-10.6,2.37c-3.41,1.11-6.36,3-8.85,5.69c-2.68,2.49-4.58,5.44-5.69,8.85c-1.72,3.28-2.51,6.81-2.37,10.6
				c0.33,2.44,0.65,4.87,0.98,7.31c1.31,4.66,3.66,8.7,7.07,12.13c1.86,1.43,3.71,2.87,5.57,4.3c4.29,2.49,8.92,3.74,13.88,3.75
				c20.07-2.14,40.15-4.16,60.2-6.45c11.94-1.36,23.94-2.82,35.67-5.49c10.84-2.47,21.19-6.3,31.26-11.02
				c4.26-2,8.37-4.3,12.26-6.95c5.77-3.94,11.44-8.3,16.38-13.27c6.92-6.96,9.68-17.27,7.07-26.76c-1.31-4.66-3.66-8.7-7.07-12.13
				c-3.43-3.41-7.48-5.77-12.13-7.07c-34.9-5.54-69.76-11.43-104.75-16.39c-19.64-2.79-39.31-5.26-59.08-6.9
				c-17.25-1.44-34.52-2.44-51.79-3.6c-19.61-1.32-39.22-2.85-58.7-5.45c2.44,0.33,4.87,0.65,7.31,0.98
				c-3.79-0.51-7.57-1.06-11.35-1.65c-3.66-1.15-7.31-1.31-10.97-0.49c-3.66,0.17-7.07,1.25-10.22,3.26
				c-3.2,1.73-5.78,4.09-7.72,7.08c-2.43,2.66-4.07,5.77-4.92,9.35c-0.33,2.44-0.65,4.87-0.98,7.31c0.02,4.96,1.27,9.59,3.75,13.88
				c1.43,1.86,2.87,3.71,4.3,5.57C278.23,286.9,282.27,289.26,286.93,290.57L286.93,290.57z"/>
		</g>
	</g>
	<g>
		<g>
			<path class="st0" d="M784.85,316.08c-1.65,1.12-3.39,2.06-5.22,2.84c2.19-0.92,4.38-1.85,6.57-2.77
				c-3.05,1.26-6.24,2.04-9.51,2.49c2.44-0.33,4.87-0.65,7.31-0.98c-6.1,0.79-12.27,0.49-18.38-0.02
				c-6.98-0.59-13.94-1.27-20.94-1.65c-14.77-0.79-29.57-0.79-44.36-0.76c-30.06,0.06-60.11,0.12-90.17,0.18
				c-16.82,0.03-33.65,0.07-50.47,0.1c-3.79-0.14-7.32,0.65-10.6,2.37c-3.41,1.11-6.36,3-8.85,5.69c-2.68,2.49-4.58,5.44-5.69,8.85
				c-1.72,3.28-2.51,6.81-2.37,10.6c0.33,2.44,0.65,4.87,0.98,7.31c1.31,4.66,3.66,8.7,7.07,12.13c1.86,1.43,3.71,2.87,5.57,4.3
				c4.29,2.49,8.92,3.74,13.88,3.75c32.81-0.07,65.62-0.13,98.44-0.2c16.29-0.03,32.57-0.09,48.86-0.09
				c16.1,0,32.22,0.17,48.28,1.48c7.69,0.63,15.39,1.66,23.12,1.41c1.88-0.06,3.76-0.22,5.63-0.45c4.07-0.51,8.35-0.91,12.36-1.97
				c3.92-1.03,7.73-2.81,11.39-4.43c1.7-0.76,3.32-1.64,4.86-2.68c3.2-1.73,5.78-4.09,7.72-7.08c2.43-2.66,4.07-5.77,4.92-9.35
				c1.15-3.66,1.31-7.31,0.49-10.97c-0.17-3.66-1.25-7.07-3.26-10.22c-1.43-1.86-2.87-3.71-4.3-5.57
				c-3.43-3.41-7.48-5.77-12.13-7.07c-2.44-0.33-4.87-0.65-7.31-0.98C793.76,312.34,789.14,313.59,784.85,316.08L784.85,316.08z"/>
		</g>
	</g>
	<g>
		<g>
			<path class="st0" d="M831.14,334.36c-1.36-0.36-2.67-0.81-3.97-1.35c2.19,0.92,4.38,1.85,6.57,2.77
				c-3.88-1.69-7.34-4.11-10.68-6.68c1.86,1.43,3.71,2.87,5.57,4.3c-5.75-4.44-11.25-9.31-17.42-13.15
				c-2.59-1.61-5.33-2.92-8.13-4.11c-4.78-2.04-9.54-4-14.42-5.78c-11.86-4.32-23.83-8.37-35.88-12.13
				c-6.8-2.12-13.63-4.16-20.48-6.1c-3.66-1.15-7.31-1.31-10.97-0.49c-3.66,0.17-7.07,1.25-10.22,3.26
				c-3.2,1.73-5.78,4.09-7.72,7.08c-2.43,2.66-4.07,5.77-4.92,9.35c-0.33,2.44-0.65,4.87-0.98,7.31c0.02,4.96,1.27,9.59,3.75,13.88
				c1.43,1.86,2.87,3.71,4.3,5.57c3.43,3.41,7.48,5.77,12.13,7.07c16.98,4.82,33.8,10.18,50.42,16.1c4.62,1.64,9.26,3.26,13.79,5.15
				c-2.19-0.92-4.38-1.85-6.57-2.77c5.14,2.17,9.74,4.98,14.15,8.38c-1.86-1.43-3.71-2.87-5.57-4.3c5.08,3.94,9.99,8.11,15.3,11.74
				c1.68,1.15,3.41,2.21,5.24,3.11c2.92,1.44,5.97,2.66,9,3.84c1.01,0.39,2.04,0.72,3.09,1c3.66,1.15,7.31,1.31,10.97,0.49
				c3.66-0.17,7.07-1.25,10.22-3.26c3.2-1.73,5.78-4.09,7.72-7.08c2.43-2.66,4.07-5.77,4.92-9.35c0.33-2.44,0.65-4.87,0.98-7.31
				c-0.02-4.96-1.27-9.59-3.75-13.88c-1.43-1.86-2.87-3.71-4.3-5.57C839.85,338.03,835.8,335.67,831.14,334.36L831.14,334.36z"/>
		</g>
	</g>
	<g>
		<g>
			<path class="st0" d="M639.8,266.16c2.48,3.37,5.05,7.04,8.18,9.92c3.1,2.84,6.48,5.49,10.07,7.7c3.61,2.23,7.71,3.78,11.62,5.28
				c1.94,0.75,3.96,1.27,6.01,1.6c3.66,1.15,7.31,1.31,10.97,0.49c3.66-0.17,7.07-1.25,10.22-3.26c3.2-1.73,5.78-4.09,7.72-7.08
				c2.43-2.66,4.07-5.77,4.92-9.35c0.33-2.44,0.65-4.87,0.98-7.31c-0.02-4.96-1.27-9.59-3.75-13.88c-1.43-1.86-2.87-3.71-4.3-5.57
				c-3.43-3.41-7.48-5.77-12.13-7.07c-12.81-3.69-25.85-5.79-39.06-7.51c-10.82-1.41-21.74-2.07-32.65-2.16
				c-24.85-0.21-49.53,2.68-74.1,6.11c-12.71,1.77-25.38,3.83-38.05,5.89c-3.58,0.85-6.7,2.49-9.35,4.92
				c-2.99,1.94-5.35,4.51-7.08,7.72c-2.01,3.16-3.1,6.56-3.26,10.22c-0.82,3.66-0.65,7.31,0.49,10.97c0.92,2.19,1.85,4.38,2.77,6.57
				c2.44,4.13,5.73,7.42,9.87,9.87c2.19,0.92,4.38,1.85,6.57,2.77c4.87,1.31,9.75,1.31,14.62,0c13.97-2.27,27.94-4.54,41.96-6.43
				c-2.44,0.33-4.87,0.65-7.31,0.98c25.14-3.38,50.55-5.53,75.93-4.19c6.95,0.37,13.88,1,20.77,1.92c-2.44-0.33-4.87-0.65-7.31-0.98
				c10.33,1.4,20.56,3.48,30.57,6.37c4.87-17.68,9.75-35.36,14.62-53.04c-2.45-0.39-4.81-1.07-7.1-2.04
				c2.19,0.92,4.38,1.85,6.57,2.77c-2.39-1.04-4.62-2.37-6.69-3.96c1.86,1.43,3.71,2.87,5.57,4.3c-1.94-1.54-3.68-3.28-5.2-5.24
				c1.43,1.86,2.87,3.71,4.3,5.57c-0.16-0.21-0.31-0.41-0.47-0.63c-1.73-3.2-4.09-5.78-7.08-7.72c-2.66-2.43-5.77-4.07-9.35-4.92
				c-3.66-1.15-7.31-1.31-10.97-0.49c-3.66,0.17-7.07,1.25-10.22,3.26c-1.86,1.43-3.71,2.87-5.57,4.3
				c-3.41,3.43-5.77,7.48-7.07,12.13c-0.33,2.44-0.65,4.87-0.98,7.31C636.06,257.24,637.31,261.87,639.8,266.16L639.8,266.16z"/>
		</g>
	</g>
	<g>
		<g>
			<path class="st0" d="M570.69,189.78c-10.37,0.55-20.63,1.84-30.91,3.26c-7.91,1.09-15.77,2.49-23.59,4.12
				c-15.77,3.28-31.33,7.47-46.79,11.99c-8.77,2.56-17.51,5.23-26.25,7.91c7.06,16.75,14.13,33.51,21.19,50.26
				c3.46-1.66,6.96-3.24,10.5-4.74c-2.19,0.92-4.38,1.85-6.57,2.77c14.81-6.23,30.24-10.94,46.01-14.01
				c4.45-0.87,8.93-1.6,13.42-2.2c-2.44,0.33-4.87,0.65-7.31,0.98c1.37-0.18,2.74-0.35,4.12-0.51
				c-6.48-15.65-12.96-31.3-19.45-46.95c-2.45,3.13-5.39,5.79-8.52,8.23c1.86-1.43,3.71-2.87,5.57-4.3
				c-7.21,5.55-14.94,10.47-22.44,15.61c-7.92,5.44-15.84,10.87-23.75,16.31c-4.51,3.09-9.01,6.18-13.52,9.28
				c12.54,12.54,25.08,25.08,37.63,37.63c9.92-13.11,19.85-26.21,29.77-39.32c2.49-4.29,3.74-8.92,3.75-13.88
				c-0.02-4.96-1.27-9.59-3.75-13.88c-2.44-4.13-5.73-7.42-9.87-9.87c-4.29-2.49-8.92-3.74-13.88-3.75
				c-17.18,0.96-33.79,6.37-50.22,11.07c-14.5,4.15-28.94,8.49-43.32,13.02c-8.13,2.56-16.24,5.18-24.33,7.87
				c10.35,13.47,20.7,26.93,31.06,40.4c0.47-0.65,0.96-1.3,1.45-1.94c-1.43,1.86-2.87,3.71-4.3,5.57
				c4.36-5.64,9.42-10.7,15.05-15.08c-1.86,1.43-3.71,2.87-5.57,4.3c5.76-4.44,12.04-8.12,18.73-10.96
				c-2.19,0.92-4.38,1.85-6.57,2.77c0.74-0.31,1.49-0.61,2.24-0.9c-11.28-11.28-22.55-22.55-33.83-33.83
				c-0.3,1.99-0.87,3.9-1.64,5.75c0.92-2.19,1.85-4.38,2.77-6.57c-1.36,3.11-3.23,5.92-5.29,8.61c1.43-1.86,2.87-3.71,4.3-5.57
				c-2.56,3.3-5.35,6.41-8,9.63c-4.22,5.14-8.29,10.41-12.25,15.74c-5.36,7.22-10.36,14.7-14.96,22.43
				c-2.59,4.35-5.06,8.77-7.4,13.26c-2.01,3.16-3.1,6.56-3.26,10.22c-0.82,3.66-0.65,7.31,0.49,10.97c0.85,3.58,2.49,6.7,4.92,9.35
				c1.94,2.99,4.51,5.35,7.72,7.08c2.19,0.92,4.38,1.85,6.57,2.77c4.87,1.31,9.75,1.31,14.62,0c2.19-0.92,4.38-1.85,6.57-2.77
				c4.13-2.44,7.42-5.73,9.87-9.87c10.13-14.44,19.22-29.6,27.14-45.36c2.25-4.47,4.4-8.99,6.47-13.55
				c0.92-2.19,1.85-4.38,2.77-6.57c1.15-3.66,1.31-7.31,0.49-10.97c-0.01-2.48-0.63-4.8-1.88-6.94c-1.11-3.41-3-6.36-5.69-8.85
				c-1.86-1.43-3.71-2.87-5.57-4.3c-2.19-0.92-4.38-1.85-6.57-2.77c-3.66-1.15-7.31-1.31-10.97-0.49
				c-3.66,0.17-7.07,1.25-10.22,3.26c-17.38,12.13-35.62,23.04-54.54,32.6c-5.39,2.72-10.83,5.33-16.32,7.83
				c12.54,12.54,25.08,25.08,37.63,37.63c0.83-1.13,1.67-2.24,2.52-3.35c-1.43,1.86-2.87,3.71-4.3,5.57
				c9.4-12.13,20.36-22.93,31.75-33.19c11.46-10.33,23.37-20.16,34.79-30.53c6.43-5.83,12.69-11.84,18.63-18.18
				c2.68-2.49,4.58-5.44,5.69-8.85c1.72-3.28,2.51-6.81,2.37-10.6c0.14-3.79-0.65-7.32-2.37-10.6c-1.11-3.41-3-6.36-5.69-8.85
				c-1.86-1.43-3.71-2.87-5.57-4.3c-4.29-2.49-8.92-3.74-13.88-3.75c-2.44,0.33-4.87,0.65-7.31,0.98c-4.66,1.31-8.7,3.66-12.13,7.07
				c-14.47,11.25-28.95,22.5-43.42,33.74c-4.13,3.21-8.25,6.41-12.38,9.62c14.4,11.11,28.79,22.22,43.19,33.33
				c9.73-14.99,19.49-29.98,30.41-44.14c-1.43,1.86-2.87,3.71-4.3,5.57c7.05-9.12,14.59-17.88,22.83-25.95
				c-12.96-12.96-25.93-25.93-38.89-38.89c-9.97,11.7-21.14,22.34-33.3,31.75c1.86-1.43,3.71-2.87,5.57-4.3
				c-0.48,0.37-0.96,0.73-1.44,1.1c13.47,10.35,26.93,20.7,40.4,31.06c0.23-0.64,0.47-1.28,0.73-1.91
				c-0.92,2.19-1.85,4.38-2.77,6.57c1.24-2.88,2.88-5.54,4.77-8.04c-1.43,1.86-2.87,3.71-4.3,5.57
				c5.52-7.13,12.76-12.99,19.85-18.49c-1.86,1.43-3.71,2.87-5.57,4.3c9.73-7.51,20.11-14.13,30.9-19.99
				c5.41-2.94,10.92-5.68,16.5-8.26c2.86-1.32,5.73-2.6,8.63-3.84c2.69-1.15,5.44-2.25,7.91-3.83c2.48-1.59,4.8-3.52,7.09-5.37
				c0.64-0.52,1.25-1.04,1.81-1.64c0.26-0.28,0.5-0.58,0.74-0.87c1.62-1.98,3.31-4.06,4.75-6.19c0.43-0.64,0.78-1.31,1.11-2.01
				c2.96-6.33,4.36-10.37,4.61-17.52c0.24-6.81-1.79-11.46-4.47-17.47c-2.44-4.13-5.73-7.42-9.87-9.87
				c-4.29-2.49-8.92-3.74-13.88-3.75c-3.02-0.01-6.04,0.16-9.04,0.52c-5.27,0.63-10.6,1.26-15.78,2.51
				c-2.93,0.71-5.83,1.61-8.65,2.68c-3.35,1.27-6.64,2.71-9.92,4.14c-1.37,0.6-2.76,1.22-4.06,1.95
				c-10.17,5.7-16.6,16.38-16.57,28.07c0.02,6.35,2.12,11.39,4.83,16.99c0.53,1.09,1.12,2.16,1.77,3.19
				c1.2,1.91,2.63,3.66,4.01,5.44c1.45,1.88,2.86,3.79,4.48,5.53c1.61,1.73,3.38,3.31,5.23,4.76c5.73,4.49,11.29,8.58,17.75,11.9
				c4.61,2.37,9.37,4.44,14.14,6.49c7.48,3.22,15.08,6.75,23.06,8.6c1.52,0.35,3.05,0.62,4.59,0.84c3.84,0.55,7.7,1.15,11.58,1.41
				c3.18,0.21,6.37,0.2,9.55,0.13c14.7-0.33,29.4-0.94,44.09-1.41c2.44-0.33,4.87-0.65,7.31-0.98c3.58-0.85,6.7-2.49,9.35-4.92
				c2.07-1.22,3.71-2.87,4.93-4.93c2.43-2.66,4.07-5.77,4.92-9.35c0.33-2.44,0.65-4.87,0.98-7.31c-0.33-2.44-0.65-4.87-0.98-7.31
				c-0.85-3.58-2.49-6.7-4.92-9.35c-1.94-2.99-4.51-5.35-7.72-7.08c-4.4-2.71-9.05-4.94-13.79-6.99c-6.83-2.95-13.75-5.7-20.61-8.58
				c2.19,0.92,4.38,1.85,6.57,2.77c-7.16-3.03-14.25-6.38-20.44-11.14c1.86,1.43,3.71,2.87,5.57,4.3c-2.97-2.32-5.54-4.95-8.03-7.78
				c-1.24-1.41-2.51-2.82-3.95-4.02c-2.37-1.98-4.77-4.01-7.41-5.64c-2.77-1.7-5.94-2.82-8.97-3.91c-3.66-1.15-7.31-1.31-10.97-0.49
				c-3.66,0.17-7.07,1.25-10.22,3.26c-3.2,1.73-5.78,4.09-7.72,7.08c-2.43,2.66-4.07,5.77-4.92,9.35c-0.33,2.44-0.65,4.87-0.98,7.31
				c0.02,4.96,1.27,9.59,3.75,13.88c1.43,1.86,2.87,3.71,4.3,5.57c3.43,3.41,7.48,5.77,12.13,7.07c0.24,0.08,0.48,0.17,0.72,0.27
				c-2.19-0.92-4.38-1.85-6.57-2.77c1.05,0.46,2.01,1.04,2.93,1.73c-1.86-1.43-3.71-2.87-5.57-4.3c2.87,2.24,5.01,5.21,7.54,7.8
				c1.27,1.3,2.61,2.52,4.01,3.66c3.06,2.49,6.18,4.97,9.45,7.19c7.75,5.26,16.61,8.7,25.21,12.29c3.79,1.58,7.61,3.09,11.39,4.69
				c-2.19-0.92-4.38-1.85-6.57-2.77c5.28,2.24,10.49,4.66,15.38,7.67c4.63-17.08,9.25-34.16,13.88-51.25
				c-9.78,0.32-19.56,0.63-29.35,0.95c-9.47,0.31-19.14,1.16-28.57-0.1c2.44,0.33,4.87,0.65,7.31,0.98
				c-6.75-0.96-13.13-3.31-19.38-5.94c2.19,0.92,4.38,1.85,6.57,2.77c-9.53-4.04-19.3-8.15-27.59-14.47
				c1.86,1.43,3.71,2.87,5.57,4.3c-2.97-2.3-5.69-4.88-8-7.84c1.43,1.86,2.87,3.71,4.3,5.57c-1.63-2.14-3.03-4.44-4.12-6.91
				c0.92,2.19,1.85,4.38,2.77,6.57c-0.27-0.67-0.48-1.33-0.59-2.05c0.33,2.44,0.65,4.87,0.98,7.31c-0.03-0.28-0.03-0.56,0-0.83
				c-0.33,2.44-0.65,4.87-0.98,7.31c0.07-0.39,0.15-0.69,0.31-1.06c-0.92,2.19-1.85,4.38-2.77,6.57c0.1-0.2,0.21-0.39,0.35-0.58
				c-1.43,1.86-2.87,3.71-4.3,5.57c0.29-0.37,0.6-0.68,0.96-0.98c-1.86,1.43-3.71,2.87-5.57,4.3c1.84-1.4,4.12-2.28,6.23-3.18
				c-2.19,0.92-4.38,1.85-6.57,2.77c6-2.51,12.29-4.22,18.74-5.1c-2.44,0.33-4.87,0.65-7.31,0.98c3.3-0.43,6.61-0.64,9.94-0.63
				c-7.92-4.54-15.83-9.08-23.75-13.62c0.05,0.11,0.1,0.23,0.15,0.34c-0.92-2.19-1.85-4.38-2.77-6.57c0.22,0.58,0.38,1.16,0.49,1.78
				c-0.33-2.44-0.65-4.87-0.98-7.31c0.09,0.74,0.09,1.46,0.02,2.2c0.33-2.44,0.65-4.87,0.98-7.31c-0.14,1.01-0.41,1.96-0.8,2.9
				c0.92-2.19,1.85-4.38,2.77-6.57c-0.42,0.94-0.94,1.81-1.56,2.63c1.43-1.86,2.87-3.71,4.3-5.57c-0.75,0.94-1.61,1.76-2.55,2.51
				c1.86-1.43,3.71-2.87,5.57-4.3c-2.91,2.21-6.3,3.56-9.64,4.99c-3.57,1.53-7.11,3.12-10.62,4.77
				c-6.89,3.25-13.66,6.76-20.25,10.57c-6.65,3.84-13.12,7.98-19.35,12.47c-7.89,5.69-15.66,11.69-22.83,18.27
				c-2.95,2.7-5.74,5.56-8.2,8.71c-2.59,3.31-5.39,6.62-7.46,10.32c-0.46,0.83-0.9,1.67-1.29,2.54c-1.37,3.02-2.73,6.09-3.83,9.23
				c-0.33,2.44-0.65,4.87-0.98,7.31c0.33,2.44,0.65,4.87,0.98,7.31c0.92,2.19,1.85,4.38,2.77,6.57c1.73,3.2,4.09,5.78,7.08,7.72
				c1.72,1.7,3.74,2.88,6.07,3.54c2.14,1.24,4.46,1.87,6.94,1.88c2.44,0.65,4.87,0.65,7.31,0c3.66-0.17,7.07-1.25,10.22-3.26
				c8.18-6.21,16.19-12.57,23.66-19.63c5.86-5.53,11.41-11.39,16.64-17.52c2.68-2.49,4.58-5.44,5.69-8.85
				c1.72-3.28,2.51-6.81,2.37-10.6c0.14-3.79-0.65-7.32-2.37-10.6c-1.11-3.41-3-6.36-5.69-8.85c-1.86-1.43-3.71-2.87-5.57-4.3
				c-4.29-2.49-8.92-3.74-13.88-3.75c-2.44,0.33-4.87,0.65-7.31,0.98c-4.66,1.31-8.7,3.66-12.13,7.07
				c-8.25,8.07-15.77,16.83-22.83,25.95c-8.39,10.84-16.38,21.9-23.97,33.31c-3.62,5.44-7.18,10.92-10.74,16.4
				c-2.01,3.16-3.1,6.56-3.26,10.22c-0.82,3.66-0.65,7.31,0.49,10.97c0.92,2.19,1.85,4.38,2.77,6.57c1.73,3.2,4.09,5.78,7.08,7.72
				c1.72,1.7,3.74,2.88,6.07,3.54c3.28,1.72,6.81,2.51,10.6,2.37c2.44-0.33,4.87-0.65,7.31-0.98c4.66-1.31,8.7-3.66,12.13-7.07
				c14.47-11.25,28.95-22.5,43.42-33.74c4.13-3.21,8.25-6.41,12.38-9.62c-12.96-12.96-25.93-25.93-38.89-38.89
				c-10.97,11.72-23.08,22.29-35.22,32.78c-12.06,10.42-24.19,20.81-35.27,32.28c-7.79,8.06-14.85,16.72-21.49,25.75
				c-0.92,2.19-1.85,4.38-2.77,6.57c-1.15,3.66-1.31,7.31-0.49,10.97c0.01,2.48,0.63,4.8,1.88,6.94c1.11,3.41,3,6.36,5.69,8.85
				c1.86,1.43,3.71,2.87,5.57,4.3c2.19,0.92,4.38,1.85,6.57,2.77c3.66,1.15,7.31,1.31,10.97,0.49c3.66-0.17,7.07-1.25,10.22-3.26
				c19.29-8.79,37.96-18.94,55.81-30.36c5.08-3.25,10.1-6.61,15.05-10.06c-12.54-12.54-25.08-25.08-37.63-37.63
				c-7.27,16.07-15.7,31.61-25.23,46.45c-2.71,4.21-5.5,8.37-8.38,12.46c15.83,9.25,31.66,18.51,47.49,27.76
				c7.28-13.93,15.77-27.21,25.37-39.66c-1.43,1.86-2.87,3.71-4.3,5.57c3.97-5.13,8.28-9.95,12.3-15.03
				c3.16-3.99,6.66-8.1,9.1-12.64c1.75-3.26,3.15-6.74,4.42-10.21c0.53-1.45,0.9-2.93,1.13-4.46c1.31-4.87,1.31-9.75,0-14.62
				c-1.31-4.66-3.66-8.7-7.07-12.13c-3.43-3.41-7.48-5.77-12.13-7.07c-4.87-1.31-9.75-1.31-14.62,0
				c-9.84,3.83-19.15,8.2-27.55,14.64c-4.98,3.82-9.9,7.58-14.28,12.07c-4.44,4.56-8.35,9.67-12.08,14.81
				c-0.92,2.19-1.85,4.38-2.77,6.57c-0.33,2.44-0.65,4.87-0.98,7.31c0.33,2.44,0.65,4.87,0.98,7.31c0.85,3.58,2.49,6.7,4.92,9.35
				c1.22,2.07,2.87,3.71,4.93,4.93c1.72,1.7,3.74,2.88,6.07,3.54c2.14,1.24,4.46,1.87,6.94,1.88c3.66,0.82,7.31,0.65,10.97-0.49
				c27.23-9.02,54.68-17.37,82.32-25.02c7.59-2.1,15.19-4.36,23-5.46c-2.44,0.33-4.87,0.65-7.31,0.98c1.74-0.23,3.49-0.4,5.24-0.5
				c-7.92-13.79-15.83-27.59-23.75-41.38c-9.92,13.11-19.85,26.21-29.77,39.32c-0.92,2.19-1.85,4.38-2.77,6.57
				c-1.15,3.66-1.31,7.31-0.49,10.97c0.01,2.48,0.63,4.8,1.88,6.94c1.11,3.41,3,6.36,5.69,8.85c1.86,1.43,3.71,2.87,5.57,4.3
				c2.19,0.92,4.38,1.85,6.57,2.77c3.66,1.15,7.31,1.31,10.97,0.49c3.66-0.17,7.07-1.25,10.22-3.26
				c9.49-6.51,18.98-13.03,28.46-19.54c9.27-6.36,18.64-12.61,27.81-19.12c3.99-2.84,7.93-5.79,11.64-8.98
				c2.14-1.85,4.13-3.86,5.88-6.08c1.43-1.86,2.87-3.71,4.3-5.57c0.92-2.19,1.85-4.38,2.77-6.57c0.33-2.44,0.65-4.87,0.98-7.31
				c0.14-3.79-0.65-7.32-2.37-10.6c-0.65-2.33-1.83-4.35-3.54-6.07c-1.22-2.07-2.87-3.71-4.93-4.93c-1.72-1.7-3.74-2.88-6.07-3.54
				c-3.28-1.72-6.81-2.51-10.6-2.37c-12.37,1.45-24.68,3.33-36.77,6.35c-9.92,2.48-19.67,5.6-29.17,9.36
				c-7.42,2.93-14.79,6.06-21.98,9.52c-3.2,1.73-5.78,4.09-7.72,7.08c-2.43,2.66-4.07,5.77-4.92,9.35
				c-0.33,2.44-0.65,4.87-0.98,7.31c-0.14,3.79,0.65,7.32,2.37,10.6c0.65,2.33,1.83,4.35,3.54,6.07c1.94,2.99,4.51,5.35,7.72,7.08
				c2.19,0.92,4.38,1.85,6.57,2.77c4.87,1.31,9.75,1.31,14.62,0c25.12-7.68,50.31-15.37,76.1-20.52c7.2-1.44,14.44-2.67,21.72-3.66
				c-2.44,0.33-4.87,0.65-7.31,0.98c7.44-0.99,14.92-1.72,22.41-2.12c3.79,0.14,7.32-0.65,10.6-2.37c3.41-1.11,6.36-3,8.85-5.69
				c2.68-2.49,4.58-5.44,5.69-8.85c1.72-3.28,2.51-6.81,2.37-10.6c-0.33-2.44-0.65-4.87-0.98-7.31c-1.31-4.66-3.66-8.7-7.07-12.13
				c-1.86-1.43-3.71-2.87-5.57-4.3C580.28,191.04,575.65,189.79,570.69,189.78L570.69,189.78z"/>
		</g>
	</g>
	<g>
		<g>
			<path class="st0" d="M564.31,229.67c-22,4.68-44.16,8.53-66.45,11.53c2.44-0.33,4.87-0.65,7.31-0.98
				c-0.59,0.08-1.17,0.16-1.76,0.23c4.63,17.08,9.25,34.16,13.88,51.25c3.18-1.59,6.41-3.08,9.68-4.47
				c-2.19,0.92-4.38,1.85-6.57,2.77c12.65-5.27,25.91-8.85,39.49-10.68c-2.44,0.33-4.87,0.65-7.31,0.98
				c5.43-0.7,10.88-1.13,16.35-1.27c-2.44-18.01-4.87-36.01-7.31-54.02c-23.85,5.69-47.56,11.94-71.11,18.72
				c-6.4,1.85-13.26,6.62-16.43,12.64c-0.92,2.19-1.85,4.38-2.77,6.57c-1.15,3.66-1.31,7.31-0.49,10.97
				c0.01,2.48,0.63,4.8,1.88,6.94c1.11,3.41,3,6.36,5.69,8.85c5.43,4.98,11.96,7.94,19.45,8.05c36.23,0.55,72.46,1.1,108.69,1.65
				c-2.44-18.01-4.87-36.01-7.31-54.02c-31.08,4.91-62.17,9.83-93.25,14.74c-3.58,0.85-6.7,2.49-9.35,4.92
				c-2.99,1.94-5.35,4.51-7.08,7.72c-0.92,2.19-1.85,4.38-2.77,6.57c-1.15,3.66-1.31,7.31-0.49,10.97c0.01,2.48,0.63,4.8,1.88,6.94
				c1.11,3.41,3,6.36,5.69,8.85c5.41,4.97,11.97,7.98,19.45,8.05c35.25,0.35,70.49,0.7,105.74,1.05
				c-2.44-18.01-4.87-36.01-7.31-54.02c-18.94,3.64-37.88,7.28-56.82,10.92c-2.19,0.92-4.38,1.85-6.57,2.77
				c-3.2,1.73-5.78,4.09-7.72,7.08c-3.58,4.64-6.17,10.64-5.9,16.66c0.22,4.88,1.47,9.56,3.75,13.88c3.17,6,10.04,10.81,16.43,12.64
				c36.38,10.39,74.21,16.33,112,18.01c6.56,0.29,15-3.21,19.45-8.05c1.43-1.86,2.87-3.71,4.3-5.57c2.01-3.16,3.1-6.56,3.26-10.22
				c0.65-2.44,0.65-4.87,0-7.31c-0.17-3.66-1.25-7.07-3.26-10.22c-3.73-5.78-9.45-11.24-16.43-12.64
				c-16.45-3.3-33.21-5.5-49.96-6.46c0,18.33,0,36.67,0,55c25.52-0.31,51.04-0.61,76.56-0.92c6.79-0.08,14.75-2.94,19.45-8.05
				c1.43-1.86,2.87-3.71,4.3-5.57c2.01-3.16,3.1-6.56,3.26-10.22c0.65-2.44,0.65-4.87,0-7.31c-0.17-3.66-1.25-7.07-3.26-10.22
				c-3.95-6.13-9.38-10.46-16.43-12.64c-10.13-3.12-20.44-4.77-30.96-6.01c-8.3-0.98-16.68-1.14-25.02-0.55
				c-7.35,0.52-14.11,2.72-19.45,8.05c-4.77,4.77-8.36,12.6-8.05,19.45c0.32,7.11,2.65,14.49,8.05,19.45
				c5.52,5.07,11.89,7.71,19.45,8.05c15.86,0.73,31.67-0.8,47.29-3.58c2.19-0.92,4.38-1.85,6.57-2.77c3.2-1.73,5.78-4.09,7.72-7.08
				c3.58-4.64,6.17-10.64,5.9-16.66c-0.22-4.88-1.47-9.56-3.75-13.88c-1.73-3.2-4.09-5.78-7.08-7.72c-2.66-2.43-5.77-4.07-9.35-4.92
				c-27.77-11.37-57-18.49-86.32-24.55c-8.39-1.74-16.81-3.39-25.22-5.04c0,17.68,0,35.36,0,53.04
				c10.39-3.47,20.69-8.08,29.62-14.51c4.96-3.57,10.45-7.28,14.39-12.07c2.61-3.17,5.43-6.38,7.17-10.15
				c1.25-2.72,2.72-5.59,3.42-8.53c0.73-3.05,1.26-6.55,1.26-9.67c0.01-3.02-0.55-6.43-1.2-9.37c-0.64-2.89-2.08-5.84-3.35-8.34
				c-0.88-1.74-1.91-2.93-3.18-4.57c-1.17-1.51-2.3-3.23-3.74-4.53c-5.9-5.32-12.78-9.19-20.51-11.19c-3.9-1.01-8-1.36-11.97-1.85
				c-2.2-0.28-4.41-0.46-6.63-0.5c-6.37-0.11-12.86,0.82-19.08,1.99c-6.65,1.25-12.74,3.83-18.93,6.52
				c-4.43,1.93-8.57,4.33-12.41,7.26c12.54,12.54,25.08,25.08,37.63,37.63c5.12-9.5,10.24-19,15.37-28.49
				c2.24-4.16,3.75-9.13,3.75-13.88c-0.33-2.44-0.65-4.87-0.98-7.31c-0.85-3.58-2.49-6.7-4.92-9.35c-1.22-2.07-2.87-3.71-4.93-4.93
				c-1.72-1.7-3.74-2.88-6.07-3.54c-2.14-1.24-4.46-1.87-6.94-1.88c-3.66-0.82-7.31-0.65-10.97,0.49
				c-6.47,0.9-12.82,2.52-18.92,4.88c-7.97,3.09-15.82,6.53-22.96,11.27c-7.13,4.74-14.07,10.17-19.97,16.4
				c-1.08,1.14-2.13,2.31-3.14,3.51c-2.45,2.93-5.1,5.91-6.93,9.29c-3,5.54-4.35,10.8-4.76,17.05c-0.12,1.78,0.22,3.22,0.48,5.13
				c0.26,1.91,0.36,3.64,0.92,5.43c7.34,23.49,33.8,30.45,55.74,27.75c5.68-0.7,11.36-1.38,16.87-2.94
				c5.41-1.53,10.64-3.81,15.73-6.12c9.74-4.41,18.88-11.26,24.47-20.5c1.44-2.38,2.38-5.16,3.39-7.74c0.24-0.61,0.47-1.2,0.63-1.84
				c1.54-6.04,1.4-11.8,0.11-17.84c-0.39-1.81-1.07-3.13-1.84-4.96c-0.6-1.41-1.19-3.16-2.01-4.56c-1.39-2.39-3.32-4.67-5.11-6.75
				c-0.45-0.52-0.91-1.01-1.42-1.49c-7.84-7.33-17.75-11.05-27.88-14.01c-7.19-2.1-14.52-3.7-21.93-4.79
				c-9.45-1.39-18.89-2.55-28.45-2.72c-17.04-0.3-34.5,1.81-50.98,6.12c-4.83,1.26-9.31,3.19-13.91,5.18
				c-4.63,2.01-8.5,4.99-12.38,8.25c-1.02,0.86-1.91,1.78-2.76,2.81c-2.23,2.72-4.66,5.49-6.14,8.72
				c-2.27,4.94-3.49,8.36-4.19,13.56c-0.59,4.39-0.59,7.16,0,11.54c0.36,2.72,0.62,5.26,1.57,7.82c1.29,3.5,2.69,7.26,4.75,10.44
				c2.92,4.52,6.39,8.87,10.63,12.23c4.36,3.45,8.61,6.67,13.48,9.3c1.34,0.73,2.7,1.41,4.09,2.02c2.12,0.93,5.58,2.68,8.37,3.36
				c2.88,0.69,6.22,1.25,9.16,1.25c9.92,0.03,18.65-4.22,25.89-10.72c2.43-2.18,4.46-5.09,6.24-7.75c1.88-2.8,3.08-6.17,4.23-9.28
				c0.39-1.06,0.65-2.12,0.84-3.23c0.57-3.38,1.28-6.98,1.13-10.45c-0.2-4.63-0.76-9.54-2.43-13.93
				c-2.8-7.36-5.29-11.61-10.24-17.71c-2.86-3.53-6.66-6.37-10.42-8.85c-1.18-0.78-2.44-1.37-3.74-1.93
				c-3.54-1.54-7.08-3.25-10.86-4.13c-5.37-1.24-11.15-2-16.69-1.76c-9.13,0.39-18.26,2.24-26.88,5.27
				c-8.04,2.83-16.1,6.11-23.5,10.37c-3.75,2.16-7.17,4.71-10.59,7.35c-3.41,2.64-6.74,5.25-9.67,8.43
				c-5.25,5.7-9.42,11.58-12.03,18.9c-1.98,5.56-1.77,11.96-0.46,17.64c1.28,5.51,4.31,10.2,8,14.37c0.33,0.37,0.66,0.71,1.03,1.05
				c1.96,1.78,4.3,3.69,6.63,5.01c1.38,0.78,3.14,1.39,4.49,1.96c1.71,0.72,3.35,1.54,5.15,1.96c4.72,1.09,9.68,1.72,14.51,1.12
				c4.94-0.62,9.9-1.09,14.6-2.81c4.6-1.69,9.42-3.54,13.54-6.28c3.95-2.63,8.07-5.61,11.18-9.26c4.93-5.79,7.88-10.63,10.42-17.84
				c0.42-1.2,0.7-2.4,0.9-3.65c0.56-3.51,1.35-7.29,1.07-10.9c-0.61-7.71-2.03-13.31-5.49-20.21c-0.56-1.11-1.2-2.15-1.92-3.15
				c-1.97-2.73-4.01-5.56-6.37-7.99c-3.36-3.46-7.39-6.43-11.47-8.99c-4.23-2.65-9.01-4.46-13.6-6.31c-2.62-1.05-5.33-1.9-8.09-2.53
				c-8.94-2.05-18.3-3.18-27.47-3.43c-9.26-0.25-18.42,0.86-27.56,2.28c-7.09,1.11-14.06,2.9-20.8,5.35
				c-5.35,1.94-10.62,4.17-15.76,6.6c-4.99,2.35-9.05,5.36-13.37,8.89c-1.18,0.96-2.27,1.99-3.26,3.14
				c-2.3,2.67-4.85,5.61-6.46,8.83c-4.25,8.53-5.98,17.6-3.5,27c1.25,4.74,3.47,8.49,6.38,12.25c3.06,3.97,6.24,6.77,10.57,9.57
				c1.2,0.78,2.5,1.4,3.81,1.98c3.27,1.44,6.59,2.99,10.03,4.02c4.76,1.43,9.92,2,14.83,2.35c5.03,0.37,10.01-0.5,14.98-1.21
				c2.75-0.4,5.45-1.02,8.07-1.95c4.51-1.61,9.1-3.45,13.24-5.91c8.64-5.14,15.11-11.84,20.77-20.03c2.01-3.16,3.1-6.56,3.26-10.22
				c0.82-3.66,0.65-7.31-0.49-10.97c-2.08-6.42-6.24-13.51-12.64-16.43c-7.5-3.43-15.07-6.54-23.22-7.98
				c-7.9-1.4-15.99-2.42-24.02-1.95c-16.22,0.95-32.35,5.22-46.3,13.76c-8.72,5.34-16.87,12.23-22.07,21.18
				c-5.93,10.21-8.19,23.53-4.4,34.9c2.18,6.57,5.64,12.87,10.94,17.46c5.48,4.74,11.23,7.96,18.19,10.08
				c4.8,1.46,10.02,1.95,14.97,2.36c3.15,0.26,6.28,0.14,9.42-0.23c5.06-0.59,10.22-1.17,15.11-2.69c4.79-1.5,9.49-3.5,13.95-5.8
				c4.46-2.31,8.38-5.46,12.29-8.59c5.66-4.53,10.01-10.79,11.93-17.83c2.26-8.3,1.07-17.9-3.66-25.15
				c-5.18-7.95-12.27-12.5-21.08-15.55c-4.68-1.62-9.81-1.74-14.69-2.35c-3.41-0.43-6.83-0.8-10.25-1.08
				c-7.09-0.57-14.24-0.69-21.32,0.13c-8.43,0.98-16.72,2.1-24.6,5.31c-4.46,1.81-8.99,3.62-13.15,6.08
				c-4.3,2.55-8.28,5.72-12.1,8.92c-5.58,4.67-10.43,10.72-13.96,17.04c-2.51,4.5-4.63,9.4-5.96,14.38c-2,7.46-2.2,14.51-0.73,22.02
				c1.82,9.34,8.47,17.44,16.51,22.21c7.02,4.16,14.08,4.62,21.97,5.65c9.47,1.24,19.45,1.49,28.66-1.54
				c11.62-3.82,23.49-11.44,28.77-22.94c2.01-3.16,3.1-6.56,3.26-10.22c0.82-3.66,0.65-7.31-0.49-10.97
				c-0.92-2.19-1.85-4.38-2.77-6.57c-2.44-4.13-5.73-7.42-9.87-9.87c-7.95-3.43-15.64-6.52-24.22-7.83
				c-8.57-1.31-17.04-2.29-25.69-1.4c-8.56,0.88-17.12,2.12-25.21,5.13c-9.66,3.59-19.52,7.91-27.13,15.08
				c-4.32,4.07-6.88,9.07-8.89,14.54c-0.22,0.61-0.39,1.18-0.52,1.81c-0.59,2.78-1.11,5.88-0.98,8.74
				c0.26,5.73,1.66,11.33,4.56,16.32c1.37,2.35,3.25,4.47,4.95,6.58c0.46,0.58,0.93,1.13,1.46,1.64c7.9,7.5,18.13,11.62,28.56,14.2
				c9.17,2.27,18.74,3.4,28.17,3.92c7.41,0.41,14.86,0.33,22.26-0.13c18.9-1.16,37.87-4.32,55.97-9.94
				c6.75-2.1,12.83-6.47,16.43-12.64c3.45-5.89,4.91-14.58,2.77-21.19c-2.15-6.65-6.28-13.07-12.64-16.43
				c-6.5-3.43-13.97-4.86-21.19-2.77c-11.83,3.42-23.65,6.85-35.48,10.27c-6.7,1.94-12.9,6.59-16.43,12.64
				c-3.45,5.89-4.91,14.58-2.77,21.19c2.15,6.65,6.28,13.07,12.64,16.43c2.19,0.92,4.38,1.85,6.57,2.77c4.87,1.31,9.75,1.31,14.62,0
				c20.7-3.39,41.4-6.76,62.18-9.56c-2.44,0.33-4.87,0.65-7.31,0.98c28.46-3.81,57.1-6.49,85.84-6.53c0-18.33,0-36.67,0-55
				c-21.01,2.38-42.15,0.9-63.05-1.88c2.44,0.33,4.87,0.65,7.31,0.98c-10.64-1.43-21.23-3.18-31.81-4.95
				c-2.44,18.01-4.87,36.01-7.31,54.02c37.51,0.14,75.03-0.29,112.53-1.32c10.69-0.29,21.38-0.63,32.07-1.02
				c7.21-0.26,14.28-2.89,19.45-8.05c4.77-4.77,8.36-12.6,8.05-19.45c-0.32-7.11-2.65-14.49-8.05-19.45
				c-5.39-4.95-11.98-8.02-19.45-8.05c-24.52-0.12-49.08,2.47-73.15,7.09c-3.58,0.85-6.7,2.49-9.35,4.92
				c-2.99,1.94-5.35,4.51-7.08,7.72c-0.92,2.19-1.85,4.38-2.77,6.57c-1.15,3.66-1.31,7.31-0.49,10.97c0.01,2.48,0.63,4.8,1.88,6.94
				c1.11,3.41,3,6.36,5.69,8.85c5.46,5.01,11.93,7.85,19.45,8.05c38.72,1.03,77.47,1.15,116.19,0.33c0-18.33,0-36.67,0-55
				c-5.87,0.76-11.74,1.52-17.62,2.28c-3.79-0.14-7.32,0.65-10.6,2.37c-3.41,1.11-6.36,3-8.85,5.69c-4.77,4.77-8.36,12.6-8.05,19.45
				c0.32,7.11,2.65,14.49,8.05,19.45c1.86,1.43,3.71,2.87,5.57,4.3c4.29,2.49,8.92,3.74,13.88,3.75c5.87-0.76,11.74-1.52,17.62-2.28
				c3.79,0.14,7.32-0.65,10.6-2.37c3.41-1.11,6.36-3,8.85-5.69c4.77-4.77,8.36-12.6,8.05-19.45c-0.32-7.11-2.65-14.49-8.05-19.45
				c-5.32-4.88-12.05-8.21-19.45-8.05c-38.73,0.81-77.47,0.7-116.19-0.33c2.44,18.01,4.87,36.01,7.31,54.02
				c6.36-1.22,12.75-2.27,19.17-3.13c-2.44,0.33-4.87,0.65-7.31,0.98c15.47-2.05,31.06-3.05,46.67-2.97c0-18.33,0-36.67,0-55
				c-37.49,1.36-75,2.13-112.51,2.32c-10.7,0.05-21.39,0.06-32.09,0.02c-6.73-0.03-14.82,3.01-19.45,8.05
				c-1.43,1.86-2.87,3.71-4.3,5.57c-2.01,3.16-3.1,6.56-3.26,10.22c-0.65,2.44-0.65,4.87,0,7.31c0.17,3.66,1.25,7.07,3.26,10.22
				c3.65,5.66,9.5,11.48,16.43,12.64c33.6,5.6,68.03,11.67,102.17,7.81c3.79,0.14,7.32-0.65,10.6-2.37c3.41-1.11,6.36-3,8.85-5.69
				c4.77-4.77,8.36-12.6,8.05-19.45c-0.32-7.11-2.65-14.49-8.05-19.45c-5.38-4.94-12-8.06-19.45-8.05
				c-41.09,0.06-81.97,5.5-122.5,11.8c-10.95,1.7-21.89,3.49-32.83,5.28c4.87,17.68,9.75,35.36,14.62,53.04
				c11.83-3.42,23.65-6.85,35.48-10.27c-4.87-17.68-9.75-35.36-14.62-53.04c-10.99,3.42-22.23,5.92-33.64,7.49
				c2.44-0.33,4.87-0.65,7.31-0.98c-15.77,2.1-32,2.72-47.8,0.62c2.44,0.33,4.87,0.65,7.31,0.98c-7.15-1-14.26-2.62-20.95-5.37
				c2.19,0.92,4.38,1.85,6.57,2.77c-1.63-0.72-3.15-1.59-4.58-2.65c1.86,1.43,3.71,2.87,5.57,4.3c-1.01-0.81-1.91-1.68-2.71-2.7
				c1.43,1.86,2.87,3.71,4.3,5.57c-0.35-0.5-0.64-0.99-0.91-1.53c0.92,2.19,1.85,4.38,2.77,6.57c-0.23-0.55-0.38-1.05-0.51-1.63
				c0.33,2.44,0.65,4.87,0.98,7.31c-0.07-0.6-0.09-1.11-0.04-1.71c-0.33,2.44-0.65,4.87-0.98,7.31c0.12-0.65,0.28-1.19,0.52-1.81
				c-0.92,2.19-1.85,4.38-2.77,6.57c0.19-0.41,0.42-0.79,0.69-1.15c-1.43,1.86-2.87,3.71-4.3,5.57c0.58-0.72,1.2-1.34,1.92-1.93
				c-1.86,1.43-3.71,2.87-5.57,4.3c3.46-2.62,7.5-4.56,11.47-6.24c-2.19,0.92-4.38,1.85-6.57,2.77c5.92-2.45,12.1-4.09,18.45-4.97
				c-2.44,0.33-4.87,0.65-7.31,0.98c6.61-0.84,13.25-0.83,19.85,0.05c-2.44-0.33-4.87-0.65-7.31-0.98
				c6.1,0.88,12.02,2.49,17.71,4.87c-2.19-0.92-4.38-1.85-6.57-2.77c0.23,0.1,0.45,0.2,0.68,0.29c-3.29-12.54-6.58-25.08-9.87-37.63
				c-0.56,1.21-1.21,2.31-2.01,3.38c1.43-1.86,2.87-3.71,4.3-5.57c-0.97,1.21-2.04,2.26-3.25,3.23c1.86-1.43,3.71-2.87,5.57-4.3
				c-1.62,1.21-3.34,2.19-5.19,3c2.19-0.92,4.38-1.85,6.57-2.77c-2.22,0.89-4.47,1.47-6.83,1.82c2.44-0.33,4.87-0.65,7.31-0.98
				c-6.07,0.75-12.1,0.01-18.13-0.8c2.44,0.33,4.87,0.65,7.31,0.98c-1.99-0.27-3.93-0.61-5.79-1.38c2.19,0.92,4.38,1.85,6.57,2.77
				c-0.59-0.29-1.12-0.6-1.66-0.98c1.86,1.43,3.71,2.87,5.57,4.3c-0.53-0.44-0.94-0.86-1.38-1.4c1.43,1.86,2.87,3.71,4.3,5.57
				c-0.38-0.58-0.66-1.11-0.93-1.74c0.92,2.19,1.85,4.38,2.77,6.57c-0.22-0.65-0.37-1.26-0.49-1.94c0.33,2.44,0.65,4.87,0.98,7.31
				c-0.16-1.39-0.12-2.73,0.05-4.12c-0.33,2.44-0.65,4.87-0.98,7.31c0.41-2.62,1.16-5.14,2.17-7.59c-0.92,2.19-1.85,4.38-2.77,6.57
				c1.3-3,2.96-5.77,4.95-8.37c-1.43,1.86-2.87,3.71-4.3,5.57c2.34-2.94,5.01-5.54,7.98-7.85c-1.86,1.43-3.71,2.87-5.57,4.3
				c3.57-2.71,7.44-4.92,11.56-6.68c-2.19,0.92-4.38,1.85-6.57,2.77c5.01-2.07,10.25-3.35,15.61-4.11
				c-2.44,0.33-4.87,0.65-7.31,0.98c12.21-1.61,24.5-0.44,36.65,1.18c-2.44-0.33-4.87-0.65-7.31-0.98c1.76,0.26,3.45,0.69,5.09,1.35
				c-2.19-0.92-4.38-1.85-6.57-2.77c0.87,0.39,1.66,0.84,2.43,1.4c-1.86-1.43-3.71-2.87-5.57-4.3c0.41,0.34,0.76,0.68,1.11,1.08
				c-1.43-1.86-2.87-3.71-4.3-5.57c0.3,0.42,0.53,0.8,0.74,1.28c-0.92-2.19-1.85-4.38-2.77-6.57c0.12,0.31,0.2,0.63,0.25,0.97
				c-0.33-2.44-0.65-4.87-0.98-7.31c0.05,0.35,0.05,0.7,0.02,1.06c0.33-2.44,0.65-4.87,0.98-7.31c-0.04,0.45-0.15,0.88-0.31,1.29
				c0.92-2.19,1.85-4.38,2.77-6.57c-0.3,0.64-0.61,1.16-1.03,1.73c1.43-1.86,2.87-3.71,4.3-5.57c-1.08,1.27-2.33,2.31-3.63,3.34
				c1.86-1.43,3.71-2.87,5.57-4.3c-3.1,2.36-6.43,4.29-10.01,5.82c2.19-0.92,4.38-1.85,6.57-2.77c-3.83,1.57-7.79,2.64-11.89,3.2
				c2.44-0.33,4.87-0.65,7.31-0.98c-3.86,0.47-7.72,0.48-11.58-0.01c2.44,0.33,4.87,0.65,7.31,0.98c-2.78-0.4-5.48-1-8.07-2.09
				c2.19,0.92,4.38,1.85,6.57,2.77c-1.24-0.57-2.39-1.24-3.48-2.06c1.86,1.43,3.71,2.87,5.57,4.3c-0.7-0.58-1.33-1.19-1.92-1.88
				c1.43,1.86,2.87,3.71,4.3,5.57c-0.69-0.89-1.24-1.81-1.7-2.83c0.92,2.19,1.85,4.38,2.77,6.57c-0.41-1.04-0.7-2.08-0.89-3.18
				c0.33,2.44,0.65,4.87,0.98,7.31c-0.21-1.59-0.2-3.11,0-4.7c-0.33,2.44-0.65,4.87-0.98,7.31c0.26-1.59,0.69-3.07,1.31-4.55
				c-0.92,2.19-1.85,4.38-2.77,6.57c0.72-1.54,1.58-2.94,2.6-4.29c-1.43,1.86-2.87,3.71-4.3,5.57c1.68-2.12,3.61-3.93,5.74-5.6
				c-1.86,1.43-3.71,2.87-5.57,4.3c4.28-3.24,8.99-5.85,13.92-7.94c-2.19,0.92-4.38,1.85-6.57,2.77c5.86-2.42,11.97-4.04,18.26-4.89
				c-2.44,0.33-4.87,0.65-7.31,0.98c6.3-0.78,12.62-0.78,18.91,0.04c-2.44-0.33-4.87-0.65-7.31-0.98c6.04,0.85,11.9,2.42,17.53,4.77
				c-2.19-0.92-4.38-1.85-6.57-2.77c0.67,0.29,1.34,0.58,2,0.89c-3.29-12.54-6.58-25.08-9.87-37.63c-0.35,0.51-0.71,1.01-1.08,1.5
				c1.43-1.86,2.87-3.71,4.3-5.57c-1.77,2.27-3.78,4.28-6.03,6.07c1.86-1.43,3.71-2.87,5.57-4.3c-2.61,2.01-5.43,3.64-8.46,4.95
				c2.19-0.92,4.38-1.85,6.57-2.77c-3.24,1.34-6.6,2.25-10.08,2.74c2.44-0.33,4.87-0.65,7.31-0.98c-3.27,0.4-6.53,0.42-9.8,0.01
				c2.44,0.33,4.87,0.65,7.31,0.98c-3.06-0.43-6-1.22-8.85-2.4c2.19,0.92,4.38,1.85,6.57,2.77c-1.64-0.72-3.21-1.53-4.67-2.57
				c1.86,1.43,3.71,2.87,5.57,4.3c-0.73-0.58-1.38-1.19-1.99-1.9c1.43,1.86,2.87,3.71,4.3,5.57c-0.41-0.57-0.74-1.1-1.04-1.73
				c0.92,2.19,1.85,4.38,2.77,6.57c-0.31-0.78-0.51-1.52-0.62-2.35c0.33,2.44,0.65,4.87,0.98,7.31c-0.03-0.61-0.02-1.16,0.04-1.76
				c-0.33,2.44-0.65,4.87-0.98,7.31c0.14-0.8,0.35-1.55,0.64-2.31c-0.92,2.19-1.85,4.38-2.77,6.57c0.53-1.19,1.19-2.26,1.98-3.31
				c-1.43,1.86-2.87,3.71-4.3,5.57c1.18-1.45,2.51-2.71,3.97-3.88c-1.86,1.43-3.71,2.87-5.57,4.3c3.59-2.73,7.75-4.57,11.89-6.32
				c-2.19,0.92-4.38,1.85-6.57,2.77c9.1-3.77,18.62-6.32,28.39-7.63c-2.44,0.33-4.87,0.65-7.31,0.98
				c9.77-1.24,19.63-1.24,29.39,0.07c-2.44-0.33-4.87-0.65-7.31-0.98c5.91,0.83,11.7,2.06,17.23,4.36
				c-2.19-0.92-4.38-1.85-6.57-2.77c3.26,1.41,6.35,3.12,9.17,5.28c-1.86-1.43-3.71-2.87-5.57-4.3c1.7,1.36,3.25,2.85,4.61,4.55
				c-1.43-1.86-2.87-3.71-4.3-5.57c1.04,1.37,1.92,2.81,2.63,4.38c-0.92-2.19-1.85-4.38-2.77-6.57c0.59,1.42,1,2.87,1.25,4.39
				c-0.33-2.44-0.65-4.87-0.98-7.31c0.21,1.59,0.22,3.16,0.04,4.76c0.33-2.44,0.65-4.87,0.98-7.31c-0.23,1.54-0.63,3.01-1.22,4.46
				c0.92-2.19,1.85-4.38,2.77-6.57c-0.71,1.6-1.6,3.06-2.66,4.45c1.43-1.86,2.87-3.71,4.3-5.57c-1.26,1.56-2.68,2.92-4.25,4.17
				c1.86-1.43,3.71-2.87,5.57-4.3c-2.16,1.64-4.48,2.97-6.95,4.06c2.19-0.92,4.38-1.85,6.57-2.77c-2.92,1.22-5.92,2.06-9.05,2.53
				c2.44-0.33,4.87-0.65,7.31-0.98c-1.95,0.25-3.84,0.36-5.8,0.12c2.44,0.33,4.87,0.65,7.31,0.98c-1.13-0.17-2.2-0.44-3.27-0.83
				c2.19,0.92,4.38,1.85,6.57,2.77c-0.82-0.35-1.56-0.75-2.27-1.28c1.86,1.43,3.71,2.87,5.57,4.3c-0.38-0.33-0.7-0.65-1.03-1.05
				c1.43,1.86,2.87,3.71,4.3,5.57c-0.29-0.42-0.49-0.8-0.69-1.26c0.92,2.19,1.85,4.38,2.77,6.57c-0.11-0.31-0.19-0.64-0.24-0.97
				c0.33,2.44,0.65,4.87,0.98,7.31c-0.06-0.42-0.07-0.84-0.02-1.26c-0.33,2.44-0.65,4.87-0.98,7.31c0.13-0.77,0.32-1.38,0.62-2.1
				c-0.92,2.19-1.85,4.38-2.77,6.57c0.58-1.12,1.27-2.12,2.03-3.12c-1.43,1.86-2.87,3.71-4.3,5.57c2.82-3.6,6.07-6.77,9.67-9.58
				c-1.86,1.43-3.71,2.87-5.57,4.3c5.4-4.13,11.37-7.37,17.61-10.04c-2.19,0.92-4.38,1.85-6.57,2.77
				c7.21-3.04,14.72-5.58,22.48-6.67c-2.44,0.33-4.87,0.65-7.31,0.98c3.55-0.45,7.09-0.55,10.65-0.13
				c-2.44-0.33-4.87-0.65-7.31-0.98c2.5,0.35,4.9,0.96,7.25,1.88c-2.19-0.92-4.38-1.85-6.57-2.77c1.74,0.74,3.35,1.6,4.86,2.73
				c-1.86-1.43-3.71-2.87-5.57-4.3c1.47,1.17,2.75,2.48,3.9,3.97c-1.43-1.86-2.87-3.71-4.3-5.57c1.11,1.51,2.03,3.12,2.79,4.84
				c-0.92-2.19-1.85-4.38-2.77-6.57c0.7,1.71,1.2,3.45,1.49,5.27c-0.33-2.44-0.65-4.87-0.98-7.31c0.21,1.59,0.24,3.16,0.06,4.75
				c0.33-2.44,0.65-4.87,0.98-7.31c-0.2,1.37-0.54,2.67-1.07,3.96c0.92-2.19,1.85-4.38,2.77-6.57c-0.44,0.95-0.95,1.82-1.57,2.66
				c1.43-1.86,2.87-3.71,4.3-5.57c-0.71,0.89-1.48,1.66-2.37,2.37c1.86-1.43,3.71-2.87,5.57-4.3c-0.75,0.54-1.5,1-2.34,1.39
				c2.19-0.92,4.38-1.85,6.57-2.77c-0.65,0.25-1.26,0.43-1.94,0.57c2.44-0.33,4.87-0.65,7.31-0.98c-0.75,0.09-1.42,0.09-2.18,0.03
				c2.44,0.33,4.87,0.65,7.31,0.98c-1.01-0.17-1.95-0.44-2.91-0.8c2.19,0.92,4.38,1.85,6.57,2.77c-4.12-1.75-8.13-4.12-11.72-6.8
				c1.86,1.43,3.71,2.87,5.57,4.3c-1.98-1.53-3.77-3.21-5.36-5.14c1.43,1.86,2.87,3.71,4.3,5.57c-1.19-1.55-2.17-3.17-2.97-4.96
				c0.92,2.19,1.85,4.38,2.77,6.57c-0.64-1.58-1.09-3.15-1.35-4.84c0.33,2.44,0.65,4.87,0.98,7.31c-0.16-1.43-0.17-2.81,0-4.23
				c-0.33,2.44-0.65,4.87-0.98,7.31c0.2-1.16,0.49-2.24,0.93-3.33c-0.92,2.19-1.85,4.38-2.77,6.57c0.51-1.13,1.11-2.16,1.84-3.15
				c-1.43,1.86-2.87,3.71-4.3,5.57c0.9-1.12,1.88-2.1,2.99-3.01c-1.86,1.43-3.71,2.87-5.57,4.3c2.02-1.56,4.23-2.75,6.58-3.75
				c-2.19,0.92-4.38,1.85-6.57,2.77c8.22-3.36,17.35-4.88,26.11-6.09c-2.44,0.33-4.87,0.65-7.31,0.98
				c14.6-1.94,29.37-1.93,43.97-0.01c-2.44-0.33-4.87-0.65-7.31-0.98c11.3,1.55,23.07,3.91,33.64,8.33
				c-2.19-0.92-4.38-1.85-6.57-2.77c1.92,0.85,3.74,1.83,5.41,3.11c-1.86-1.43-3.71-2.87-5.57-4.3c0.77,0.64,1.46,1.31,2.1,2.07
				c-1.43-1.86-2.87-3.71-4.3-5.57c0.59,0.78,1.05,1.57,1.43,2.46c-0.92-2.19-1.85-4.38-2.77-6.57c0.2,0.56,0.34,1.09,0.46,1.68
				c-0.33-2.44-0.65-4.87-0.98-7.31c0.11,0.88,0.11,1.7,0.01,2.58c0.33-2.44,0.65-4.87,0.98-7.31c-0.17,0.87-0.41,1.67-0.76,2.48
				c0.92-2.19,1.85-4.38,2.77-6.57c-0.4,0.81-0.85,1.55-1.38,2.28c1.43-1.86,2.87-3.71,4.3-5.57c-1.17,1.48-2.51,2.73-3.99,3.89
				c1.86-1.43,3.71-2.87,5.57-4.3c-3.46,2.56-7.34,4.56-11.29,6.26c2.19-0.92,4.38-1.85,6.57-2.77c-5.31,2.21-10.83,3.74-16.52,4.57
				c2.44-0.33,4.87-0.65,7.31-0.98c-5.7,0.77-11.42,0.82-17.14,0.12c2.44,0.33,4.87,0.65,7.31,0.98c-2.16-0.3-4.24-0.85-6.27-1.68
				c2.19,0.92,4.38,1.85,6.57,2.77c-1.25-0.56-2.41-1.2-3.51-2c1.86,1.43,3.71,2.87,5.57,4.3c-0.72-0.57-1.35-1.18-1.93-1.88
				c1.43,1.86,2.87,3.71,4.3,5.57c-0.42-0.57-0.76-1.14-1.06-1.77c0.92,2.19,1.85,4.38,2.77,6.57c-0.25-0.67-0.42-1.31-0.52-2.02
				c0.33,2.44,0.65,4.87,0.98,7.31c-0.04-0.64-0.02-1.2,0.05-1.84c-0.33,2.44-0.65,4.87-0.98,7.31c0.16-0.76,0.35-1.41,0.64-2.13
				c-0.92,2.19-1.85,4.38-2.77,6.57c0.56-1.16,1.23-2.19,2-3.22c-1.43,1.86-2.87,3.71-4.3,5.57c3.93-4.94,8.54-9.32,13.5-13.2
				c-1.86,1.43-3.71,2.87-5.57,4.3c5.96-4.58,12.45-8.36,19.38-11.28c-2.19,0.92-4.38,1.85-6.57,2.77
				c6.72-2.77,13.73-4.7,20.94-5.69c-10.35-13.47-20.7-26.93-31.06-40.4c-5.12,9.5-10.24,19-15.37,28.49
				c-0.92,2.19-1.85,4.38-2.77,6.57c-1.15,3.66-1.31,7.31-0.49,10.97c0.01,2.48,0.63,4.8,1.88,6.94c1.11,3.41,3,6.36,5.69,8.85
				c3.51,3.22,7.6,5.6,12.13,7.07c3.66,1.15,7.31,1.31,10.97,0.49c3.66-0.17,7.07-1.25,10.22-3.26c3.94-3,8.2-5.46,12.75-7.4
				c-2.19,0.92-4.38,1.85-6.57,2.77c4.81-1.98,9.8-3.34,14.94-4.08c-2.44,0.33-4.87,0.65-7.31,0.98c5.15-0.67,10.32-0.7,15.48-0.04
				c-2.44-0.33-4.87-0.65-7.31-0.98c2.85,0.4,5.62,1,8.29,2.09c-2.19-0.92-4.38-1.85-6.57-2.77c1.35,0.59,2.6,1.28,3.8,2.13
				c-1.86-1.43-3.71-2.87-5.57-4.3c0.96,0.75,1.79,1.55,2.53,2.52c-1.43-1.86-2.87-3.71-4.3-5.57c0.45,0.66,0.83,1.33,1.15,2.06
				c-0.92-2.19-1.85-4.38-2.77-6.57c0.31,0.84,0.51,1.65,0.63,2.54c-0.33-2.44-0.65-4.87-0.98-7.31c0.05,0.7,0.05,1.35,0,2.05
				c0.33-2.44,0.65-4.87,0.98-7.31c-0.16,1.16-0.46,2.22-0.88,3.3c0.92-2.19,1.85-4.38,2.77-6.57c-0.6,1.33-1.33,2.53-2.18,3.71
				c1.43-1.86,2.87-3.71,4.3-5.57c-2.01,2.6-4.42,4.73-6.99,6.75c1.86-1.43,3.71-2.87,5.57-4.3c-5.83,4.5-12.17,8.22-18.94,11.13
				c2.19-0.92,4.38-1.85,6.57-2.77c-2.18,0.91-4.39,1.74-6.63,2.49c-2.19,0.92-4.38,1.85-6.57,2.77c-3.2,1.73-5.78,4.09-7.72,7.08
				c-3.58,4.64-6.17,10.64-5.9,16.66c0.22,4.88,1.47,9.56,3.75,13.88c1.73,3.2,4.09,5.78,7.08,7.72c2.66,2.43,5.77,4.07,9.35,4.92
				c29.4,5.78,58.89,11.58,87.44,20.81c8.14,2.63,16.18,5.55,24.09,8.79c0-17.68,0-35.36,0-53.04c-2.58,0.46-5.16,0.86-7.76,1.22
				c2.44-0.33,4.87-0.65,7.31-0.98c-10.69,1.41-21.45,1.87-32.22,1.37c0,18.33,0,36.67,0,55c9.06-0.64,18.12-0.36,27.12,0.82
				c-2.44-0.33-4.87-0.65-7.31-0.98c7.3,1.01,14.49,2.59,21.54,4.76c2.44-18.01,4.87-36.01,7.31-54.02
				c-25.52,0.31-51.04,0.61-76.56,0.92c-7.1,0.09-14.4,3.01-19.45,8.05c-4.77,4.77-8.36,12.6-8.05,19.45
				c0.32,7.11,2.65,14.49,8.05,19.45c5.55,5.1,11.87,7.62,19.45,8.05c7.89,0.45,15.76,1.21,23.6,2.26
				c-2.44-0.33-4.87-0.65-7.31-0.98c6.38,0.88,12.73,1.95,19.05,3.22c2.44-18.01,4.87-36.01,7.31-54.02
				c-13.64-0.6-27.25-1.82-40.78-3.63c2.44,0.33,4.87,0.65,7.31,0.98c-21.59-2.94-42.95-7.41-63.91-13.39c0,17.68,0,35.36,0,53.04
				c18.94-3.64,37.88-7.28,56.82-10.92c3.58-0.85,6.7-2.49,9.35-4.92c2.99-1.94,5.35-4.51,7.08-7.72c0.92-2.19,1.85-4.38,2.77-6.57
				c1.15-3.66,1.31-7.31,0.49-10.97c-0.01-2.48-0.63-4.8-1.88-6.94c-1.11-3.41-3-6.36-5.69-8.85c-5.41-4.97-11.97-7.98-19.45-8.05
				c-35.25-0.35-70.49-0.7-105.74-1.05c2.44,18.01,4.87,36.01,7.31,54.02c31.08-4.91,62.17-9.83,93.25-14.74
				c3.58-0.85,6.7-2.49,9.35-4.92c2.99-1.94,5.35-4.51,7.08-7.72c0.92-2.19,1.85-4.38,2.77-6.57c1.15-3.66,1.31-7.31,0.49-10.97
				c-0.01-2.48-0.63-4.8-1.88-6.94c-1.11-3.41-3-6.36-5.69-8.85c-5.43-4.98-11.96-7.94-19.45-8.05
				c-36.23-0.55-72.46-1.1-108.69-1.65c2.44,18.01,4.87,36.01,7.31,54.02c23.56-6.79,47.27-13.03,71.11-18.72
				c6.3-1.5,13.4-6.89,16.43-12.64c0.92-2.19,1.85-4.38,2.77-6.57c1.15-3.66,1.31-7.31,0.49-10.97c-0.01-2.48-0.63-4.8-1.88-6.94
				c-1.11-3.41-3-6.36-5.69-8.85c-5.3-4.86-12.07-8.25-19.45-8.05c-27.8,0.73-54.58,7.73-79.4,20.18c-1.86,1.43-3.71,2.87-5.57,4.3
				c-2.68,2.49-4.58,5.44-5.69,8.85c-2.31,5.46-3.26,12.1-1.39,17.91c1.47,4.54,3.85,8.62,7.07,12.13c2.49,2.68,5.44,4.58,8.85,5.69
				c3.28,1.72,6.81,2.51,10.6,2.37c25.33-3.36,50.52-7.43,75.52-12.75c6.52-1.39,13.14-7.02,16.43-12.64
				c3.45-5.89,4.91-14.58,2.77-21.19c-2.15-6.65-6.28-13.07-12.64-16.43C578.74,228.87,571.84,228.07,564.31,229.67L564.31,229.67z"
				/>
		</g>
	</g>
	<g>
		<g>
			<path class="st0" d="M783.81,298.1c-4.18-1.01-8.25-2.37-12.21-4.03c2.19,0.92,4.38,1.85,6.57,2.77
				c-11.73-4.97-22.2-12.34-32.23-20.09c1.86,1.43,3.71,2.87,5.57,4.3c-11.12-8.6-22.02-17.47-33.29-25.89
				c-9.78-7.3-19.76-14.34-29.92-21.09c-20.46-13.59-41.67-26.05-63.5-37.3c-6.01-3.1-12.1-6.02-18.14-9.06
				c-5.78-2.91-11.46-6.04-16.6-9.99c1.86,1.43,3.71,2.87,5.57,4.3c-1.68-1.31-3.28-2.69-4.81-4.18c-2.49-2.68-5.44-4.58-8.85-5.69
				c-3.28-1.72-6.81-2.51-10.6-2.37c-3.79-0.14-7.32,0.65-10.6,2.37c-3.41,1.11-6.36,3-8.85,5.69c-1.43,1.86-2.87,3.71-4.3,5.57
				c-2.49,4.29-3.74,8.92-3.75,13.88c0.33,2.44,0.65,4.87,0.98,7.31c1.31,4.66,3.66,8.7,7.07,12.13c3.4,3.31,7.26,6.14,11.05,8.99
				c2.09,1.58,4.29,3.02,6.53,4.37c4.47,2.69,9.14,5,13.81,7.29c9.8,4.81,19.51,9.79,29.08,15.04
				c19.39,10.64,38.25,22.25,56.49,34.77c10.31,7.08,20.42,14.45,30.32,22.1c-1.86-1.43-3.71-2.87-5.57-4.3
				c9.67,7.48,19.12,15.25,28.92,22.57c7.81,5.83,15.97,11.3,24.83,15.42c7.02,3.26,14.26,6.33,21.81,8.15
				c3.66,1.15,7.31,1.31,10.97,0.49c3.66-0.17,7.07-1.25,10.22-3.26c3.2-1.73,5.78-4.09,7.72-7.08c2.43-2.66,4.07-5.77,4.92-9.35
				c0.33-2.44,0.65-4.87,0.98-7.31c-0.02-4.96-1.27-9.59-3.75-13.88c-1.43-1.86-2.87-3.71-4.3-5.57
				C792.51,301.76,788.47,299.41,783.81,298.1L783.81,298.1z"/>
		</g>
	</g>
	<g>
		<g>
			<path class="st0" d="M551.26,215.06c2.59,2.26,5.38,4.32,8.13,6.37c0.93,0.7,1.9,1.35,2.89,1.97c3.95,2.46,8.33,4.09,12.61,5.88
				c3.66,1.15,7.31,1.31,10.97,0.49c3.66-0.17,7.07-1.25,10.22-3.26c3.2-1.73,5.78-4.09,7.72-7.08c2.43-2.66,4.07-5.77,4.92-9.35
				c0.33-2.44,0.65-4.87,0.98-7.31c-0.02-4.96-1.27-9.59-3.75-13.88c-1.43-1.86-2.87-3.71-4.3-5.57c-3.43-3.41-7.48-5.77-12.13-7.07
				c-0.06-0.03-0.12-0.05-0.18-0.08c2.19,0.92,4.38,1.85,6.57,2.77c-3.32-1.4-6.44-3.23-9.3-5.42c1.86,1.43,3.71,2.87,5.57,4.3
				c-0.68-0.53-1.35-1.08-2.01-1.65c-2.49-2.68-5.44-4.58-8.85-5.69c-3.28-1.72-6.81-2.51-10.6-2.37c-3.79-0.14-7.32,0.65-10.6,2.37
				c-3.41,1.11-6.36,3-8.85,5.69c-1.43,1.86-2.87,3.71-4.3,5.57c-2.49,4.29-3.74,8.92-3.75,13.88c0.33,2.44,0.65,4.87,0.98,7.31
				C545.49,207.59,547.85,211.63,551.26,215.06L551.26,215.06z"/>
		</g>
	</g>
</g>
<g id="Layer_1">
	<rect x="83.4" y="348.48" class="st1" width="770.02" height="429.3"/>
	<line class="st1" x1="459.42" y1="78.73" x2="81.27" y2="347.33"/>
	<line class="st1" x1="855.52" y1="347.49" x2="452.73" y2="78.4"/>
	<line class="st2" x1="270" y1="399.53" x2="144.77" y2="562.56"/>
	<line class="st2" x1="146.03" y1="403.51" x2="260.17" y2="563.13"/>
	<line class="st2" x1="743.27" y1="423.42" x2="619.35" y2="572.58"/>
	<line class="st2" x1="618.08" y1="423.42" x2="739.62" y2="573.06"/>
	<rect x="379.62" y="563.13" class="st2" width="151.3" height="214.65"/>
	<rect x="138.07" y="399.53" class="st2" width="131.93" height="163.6"/>
	<rect x="614.53" y="423.42" class="st2" width="128.74" height="152.07"/>
	<rect x="108.87" y="718.05" class="st3" width="149.97" height="88.92"/>
	<line class="st2" x1="189.22" y1="932.66" x2="183.86" y2="806.97"/>
	<text transform="matrix(1 0 0 1 150.6802 775.7852)" class="st4 st5">Lorem ipsum</text>
	<text transform="matrix(1 0 0 1 324.5106 304.1784)" class="st6 st7 st8">NIRVANA</text>
</g>
</svg>
